<?xml version="1.0" ?><svg width="24" height="20" viewBox="0 0 24 20" fill="none" xmlns="http://www.w3.org/2000/svg"><path d="M24 10C24 11.104 22.9248 12 21.6 12H2.4C1.0752 12 0 11.104 0 10C0 8.896 1.0752 8 2.4 8H21.6C22.9248 8 24 8.896 24 10Z" fill="black"/><path d="M24 2C24 3.104 22.9248 4 21.6 4H2.4C1.0752 4 0 3.104 0 2C0 0.896 1.0752 0 2.4 0H21.6C22.9248 0 24 0.896 24 2Z" fill="black"/><path d="M24 18C24 19.104 22.9248 20 21.6 20H2.4C1.0752 20 0 19.104 0 18C0 16.896 1.0752 16 2.4 16H21.6C22.9248 16 24 16.896 24 18Z" fill="black"/></svg>