<svg width="997" height="570" viewBox="0 0 997 570" fill="none" xmlns="http://www.w3.org/2000/svg">
<path fill-rule="evenodd" clip-rule="evenodd" d="M82.0845 363.628C81.8084 363.628 81.5845 363.852 81.5845 364.128V371.65C81.5845 371.926 81.8084 372.15 82.0845 372.15L87.9089 372.15L87.9121 372.15C88.1916 372.15 88.4683 372.194 88.7265 372.28C88.9858 372.365 89.2213 372.491 89.4197 372.649C89.6181 372.807 89.7755 372.995 89.8829 373.202C89.9773 373.384 90.0314 373.577 90.0431 373.774L90.0415 373.854C88.5453 447.702 74.8878 475.364 61.6296 491.152C58.2972 495.121 54.9811 498.349 51.8537 501.395L51.853 501.395L51.8529 501.395L51.7367 501.508C48.5822 504.58 45.6099 507.483 43.0638 510.749C38.773 516.254 35.1848 522.391 34.5794 532.687V535.608C34.5792 535.664 34.5791 535.72 34.5791 535.777C34.5791 535.833 34.5792 535.889 34.5794 535.945V539.154L34.5807 539.178L34.729 539.179C36.2552 556.408 49.2481 569.865 65.0506 569.865L65.0798 569.865H184.622L184.651 569.865C200.453 569.865 213.445 556.41 214.973 539.182L215.123 539.182V532.569C214.515 522.346 210.991 516.244 206.719 510.77C204.174 507.509 201.2 504.613 198.044 501.548L197.929 501.437L197.929 501.437C194.799 498.398 191.48 495.176 188.149 491.215C174.889 475.449 161.278 447.796 160.102 373.854L160.105 373.854C160.105 373.631 160.16 373.409 160.268 373.202C160.375 372.995 160.532 372.807 160.731 372.649C160.929 372.491 161.165 372.365 161.424 372.28C161.682 372.194 161.959 372.15 162.238 372.15C162.24 372.15 162.241 372.15 162.242 372.15M162.242 372.15L167.664 372.15C167.94 372.15 168.164 371.926 168.164 371.65V364.128C168.164 363.852 167.94 363.628 167.664 363.628H82.0845" fill="white"/>
<path fill-rule="evenodd" clip-rule="evenodd" d="M82.1903 348.804L82.251 346.468C82.2117 346.584 82.251 346.337 82.251 346.468C82.5216 344.35 83.7957 342.663 85.6755 341.248C87.8083 339.642 90.6442 338.446 93.301 337.399C93.7222 337.233 94.1367 337.071 94.5433 336.913C96.7779 336.042 98.7762 335.263 100.345 334.35C102.05 333.359 103.397 331.76 103.521 330.165H146.182C146.225 331.816 147.596 333.327 149.357 334.351C150.926 335.263 152.923 336.042 155.157 336.913L155.161 336.914L155.166 336.916C155.57 337.074 155.982 337.235 156.401 337.4C159.058 338.447 161.894 339.642 164.027 341.248C165.906 342.664 167.18 344.35 167.451 346.467C167.451 346.336 167.491 346.584 167.451 346.467L167.512 348.803L167.515 349.079H167.512V362.509C167.512 363.127 167.035 363.628 166.446 363.628H83.2569C82.6678 363.628 82.1903 363.127 82.1903 362.509V349.079H82.187L82.1903 348.804ZM103.521 330.165C103.525 330.112 103.519 330.218 103.521 330.165Z" fill="white"/>
<path fill-rule="evenodd" clip-rule="evenodd" d="M99.2569 133.373V130.966C101.61 130.966 103.518 129.892 103.523 128.566V115.933H146.18L146.18 128.562C146.181 129.89 148.09 130.966 150.446 130.966L150.446 131.252V313.592L150.446 318.129C148.092 318.129 146.183 320.528 146.18 323.487L146.18 323.495V323.496L146.18 330.203H103.523V323.488C103.52 320.528 101.611 318.129 99.2569 318.129V312.766L99.2569 133.373Z" fill="white"/>
<path fill-rule="evenodd" clip-rule="evenodd" d="M0 107.933C1.64734 112.594 6.0923 115.933 11.3172 115.933H238.385C243.61 115.933 248.055 112.594 249.702 107.933H0Z" fill="white"/>
<rect x="99" y="22.9327" width="22" height="22" fill="#BB0505"/>
<rect x="128" y="22.9327" width="22" height="22" fill="#BB0505"/>
<rect x="113.851" y="0.932739" width="22" height="22" fill="#BB0505"/>
<path fill-rule="evenodd" clip-rule="evenodd" d="M131 73.9327H119L117.526 87.9327H116.769C116.667 87.9327 116.575 87.995 116.537 88.0899L111.137 101.59C111.071 101.754 111.192 101.933 111.369 101.933H116.053L115 111.933H135L133.947 101.933H138.631C138.808 101.933 138.929 101.754 138.863 101.59L133.463 88.0899C133.425 87.995 133.333 87.9327 133.231 87.9327H132.474L131 73.9327Z" fill="white"/>
<path fill-rule="evenodd" clip-rule="evenodd" d="M92 47.5579C95.4823 56.4996 102.642 64.1985 112.11 69.5901L110.874 96.7789C110.868 96.9212 110.981 97.0402 111.124 97.0402H138.876C139.019 97.0402 139.132 96.9212 139.126 96.7789L137.89 69.5902C147.358 64.1986 154.518 56.4997 158 47.5579L132.069 47.5579H92Z" fill="white"/>
<circle cx="157.875" cy="47.5377" r="0.125" fill="white"/>
<path d="M92.25 47.5339C92.25 47.601 92.194 47.6554 92.125 47.6554C92.056 47.6554 92 47.601 92 47.5339C92 47.4668 92.056 47.4127 92.125 47.4127C92.194 47.4127 92.25 47.4668 92.25 47.5339Z" fill="white"/>
<path d="M92.1289 47.4127H157.872V47.7839H92.152L92.1289 47.4127Z" fill="white"/>
<path d="M94.9681 27.6256C94.9864 27.5033 95.0915 27.4127 95.2153 27.4127H154.785C154.908 27.4127 155.014 27.5033 155.032 27.6256L157.957 47.1256C157.98 47.2768 157.863 47.4127 157.71 47.4127H92.2903C92.1375 47.4127 92.0204 47.2768 92.0431 47.1256L94.9681 27.6256Z" fill="white"/>
<path fill-rule="evenodd" clip-rule="evenodd" d="M79.2019 332.32C79.1433 332.195 79.1973 332.046 79.3223 331.988L97.3154 323.564C97.4404 323.505 97.5892 323.559 97.6478 323.684L98.2336 324.935C97.8444 325.208 97.6816 325.693 97.8702 326.096C98.0588 326.499 98.5358 326.685 98.9942 326.56L99.7655 328.208C99.3764 328.48 99.2135 328.965 99.4021 329.368C99.5907 329.771 100.068 329.957 100.526 329.832L101.175 331.218C101.234 331.343 101.18 331.492 101.055 331.551L96.0104 333.912L97.0252 336.08L88.4727 340.084L87.4579 337.916L83.0616 339.975C82.9365 340.033 82.7877 339.979 82.7292 339.854L82.0792 338.466C82.4592 338.192 82.6166 337.713 82.43 337.314C82.2434 336.916 81.7746 336.73 81.3208 336.846L80.5472 335.194C80.9273 334.92 81.0846 334.441 80.898 334.042C80.7115 333.644 80.2427 333.458 79.7889 333.574L79.2019 332.32Z" fill="white"/>
<path d="M155.165 339.938C193.141 230.885 286.867 254.838 312.652 342.595C338.436 430.352 370.491 429.749 430.716 384.212" stroke="white" stroke-width="12"/>
<path d="M522.482 323.043C651.049 190.312 670.308 271.513 762.697 203.761" stroke="white" stroke-width="12"/>
<path fill-rule="evenodd" clip-rule="evenodd" d="M457.836 421.909L445.125 470.207L452.862 472.243L465.725 423.367C463.038 423.05 460.405 422.561 457.836 421.909ZM509.097 412.069L544.701 467.716L551.44 463.404L515.294 406.91C513.345 408.761 511.275 410.484 509.097 412.069ZM533.29 374.246L615.844 394.831L617.779 387.069L534.32 366.258C534.149 368.972 533.802 371.639 533.29 374.246ZM496.712 305.624L511.152 250.755L503.415 248.719L489.125 303.018C491.727 303.724 494.259 304.597 496.712 305.624ZM450.233 305.227L418.564 255.729L411.825 260.041L442.958 308.7C445.293 307.39 447.723 306.228 450.233 305.227ZM416.978 336.999L352.163 320.838L350.228 328.6L414.146 344.538C414.928 341.949 415.876 339.432 416.978 336.999Z" fill="white"/>
<path fill-rule="evenodd" clip-rule="evenodd" d="M975.296 40.5556C977.187 40.1492 979.083 39.3152 980.814 38.0437C982.546 36.7721 983.909 35.2131 984.863 33.5298L987.929 31.2788L994.176 39.7868L991.111 42.0379C989.219 42.4443 987.324 43.2783 985.592 44.5498C983.86 45.8214 982.497 47.3804 981.543 49.0636L977.882 51.7521C977.883 51.7532 977.883 51.7532 977.883 51.7533L977.881 51.7544L977.876 51.7589L977.852 51.7768L977.76 51.8481L977.393 52.1304C977.07 52.3799 976.589 52.7505 975.961 53.2353C974.704 54.205 972.857 55.6317 970.494 57.4593C965.768 61.1145 958.98 66.3736 950.73 72.7893C934.229 85.6206 911.882 103.078 888.497 121.582L888.17 121.169L888.48 121.593L886.79 122.834C886.267 122.586 885.692 122.593 885.264 122.907C884.835 123.222 884.656 123.769 884.736 124.342L882.838 125.736C882.315 125.488 881.74 125.495 881.311 125.809C880.883 126.124 880.704 126.671 880.784 127.244L868.72 136.103L869.22 136.784L867.244 138.235L861.581 142.393C858.571 143.654 855.575 145.337 852.711 147.44C849.848 149.542 847.345 151.897 845.241 154.392L836.881 160.531C833.87 161.792 830.874 163.475 828.011 165.578C825.147 167.681 822.644 170.035 820.54 172.53L812.18 178.67C809.169 179.93 806.173 181.614 803.31 183.716C800.447 185.819 797.944 188.174 795.84 190.669L787.479 196.808C784.469 198.069 781.473 199.752 778.609 201.855C775.746 203.957 773.243 206.312 771.139 208.807L768.935 210.426L766.959 211.877L755.713 196.562L757.689 195.111L759.893 193.493C762.904 192.232 765.9 190.549 768.763 188.446C771.626 186.343 774.129 183.989 776.234 181.493L784.594 175.354C787.604 174.094 790.6 172.41 793.464 170.308C796.327 168.205 798.83 165.85 800.934 163.355L809.294 157.216C812.305 155.955 815.301 154.272 818.164 152.169C821.028 150.067 823.531 147.712 825.635 145.217L833.995 139.078C837.006 137.817 840.002 136.134 842.865 134.031C845.729 131.928 848.232 129.574 850.336 127.078L855.998 122.921L857.974 121.469L858.474 122.15L870.473 113.339C871.036 113.673 871.691 113.702 872.165 113.354C872.639 113.005 872.807 112.372 872.658 111.734L874.425 110.437C874.988 110.771 875.643 110.799 876.117 110.451C876.591 110.103 876.759 109.47 876.61 108.832L878.234 107.639L878.545 108.063L878.249 107.627C902.905 90.8528 926.252 74.7567 943.434 62.8541C952.025 56.9028 959.075 51.9999 963.977 48.5849C966.429 46.8773 968.343 45.5418 969.644 44.6331C970.295 44.1788 970.792 43.8312 971.127 43.5971L971.506 43.3322L971.602 43.2652L971.626 43.2483L971.632 43.2441L971.634 43.2432L971.634 43.2441L975.296 40.5556Z" fill="white"/>
</svg>
